<svg width="30" height="30" viewBox="0 0 30 30" fill="none" xmlns="http://www.w3.org/2000/svg">
<path d="M27.0238 14.9781H22.5341V11.3863C22.5341 11.1481 22.4395 10.9197 22.2711 10.7513C22.1027 10.5829 21.8743 10.4883 21.6361 10.4883H9.06491C8.82676 10.4883 8.59837 10.5829 8.42997 10.7513C8.26157 10.9197 8.16697 11.1481 8.16697 11.3863V14.9781H3.67724C3.43909 14.9781 3.2107 15.0727 3.0423 15.2411C2.8739 15.4095 2.7793 15.6379 2.7793 15.876V23.0596C2.7793 23.2977 2.8739 23.5261 3.0423 23.6945C3.2107 23.8629 3.43909 23.9575 3.67724 23.9575H4.57519V25.7534C4.57519 25.9916 4.66979 26.22 4.83819 26.3884C5.00659 26.5568 5.23498 26.6514 5.47313 26.6514C5.71128 26.6514 5.93968 26.5568 6.10808 26.3884C6.27647 26.22 6.37108 25.9916 6.37108 25.7534V23.9575H24.33V25.7534C24.33 25.9916 24.4246 26.22 24.593 26.3884C24.7614 26.5568 24.9898 26.6514 25.2279 26.6514C25.4661 26.6514 25.6945 26.5568 25.8629 26.3884C26.0313 26.22 26.1259 25.9916 26.1259 25.7534V23.9575H27.0238C27.262 23.9575 27.4904 23.8629 27.6588 23.6945C27.8272 23.5261 27.9218 23.2977 27.9218 23.0596V15.876C27.9218 15.6379 27.8272 15.4095 27.6588 15.2411C27.4904 15.0727 27.262 14.9781 27.0238 14.9781ZM20.7382 14.9781H16.2485V12.2842H20.7382V14.9781ZM9.96286 12.2842H14.4526V14.9781H9.96286V12.2842ZM26.1259 22.1616H4.57519V16.774H26.1259V22.1616Z" fill="#4997D3"/>
<path d="M5.47314 14.0802C5.71129 14.0802 5.93969 13.9855 6.10808 13.8172C6.27648 13.6488 6.37109 13.4204 6.37109 13.1822V5.1007H24.33V13.1822C24.33 13.4204 24.4246 13.6488 24.593 13.8172C24.7614 13.9855 24.9898 14.0802 25.2279 14.0802C25.4661 14.0802 25.6945 13.9855 25.8629 13.8172C26.0313 13.6488 26.1259 13.4204 26.1259 13.1822V4.20275C26.1259 3.9646 26.0313 3.73621 25.8629 3.56781C25.6945 3.39941 25.4661 3.30481 25.2279 3.30481H5.47314C5.23499 3.30481 5.00659 3.39941 4.8382 3.56781C4.6698 3.73621 4.5752 3.9646 4.5752 4.20275V13.1822C4.5752 13.4204 4.6698 13.6488 4.8382 13.8172C5.00659 13.9855 5.23499 14.0802 5.47314 14.0802Z" fill="#4997D3"/>
</svg>
