<svg width="28" height="28" viewBox="0 0 28 28" fill="none" xmlns="http://www.w3.org/2000/svg">
<path d="M25.1364 19.8528L22.999 16.6469V12.3333C22.999 9.85798 22.0157 7.48401 20.2654 5.73367C18.515 3.98333 16.1411 3 13.6657 3C11.1903 3 8.81638 3.98333 7.06604 5.73367C5.3157 7.48401 4.33237 9.85798 4.33237 12.3333V16.6469L2.19503 19.8528C2.07828 20.0286 2.01133 20.2328 2.00132 20.4435C1.9913 20.6543 2.03859 20.8639 2.13816 21.0499C2.23772 21.236 2.38584 21.3916 2.56677 21.5002C2.7477 21.6088 2.95468 21.6663 3.1657 21.6667H24.1657C24.3767 21.6663 24.5837 21.6088 24.7646 21.5002C24.9456 21.3916 25.0937 21.236 25.1932 21.0499C25.2928 20.8639 25.3401 20.6543 25.3301 20.4435C25.3201 20.2328 25.2531 20.0286 25.1364 19.8528Z" fill="#222222"/>
<path d="M13.9999 25.6666C15.0343 25.6676 16.0395 25.324 16.8571 24.6903C17.6746 24.0565 18.2579 23.1686 18.5149 22.1666H9.48486C9.74183 23.1686 10.3251 24.0565 11.1426 24.6903C11.9602 25.324 12.9655 25.6676 13.9999 25.6666Z" fill="#222222"/>
</svg>
