<svg width="36" height="35" viewBox="0 0 36 35" fill="none" xmlns="http://www.w3.org/2000/svg">
<path d="M33.3333 16.1667L33.3333 29.6667L30.3333 29.6667L30.3333 25.1667L6.33342 25.1667L6.33342 29.6667L3.33343 29.6667L3.33344 5.66675L6.33342 5.66675L6.33342 20.6667L18.3333 20.6667L18.3333 10.1667L27.3333 10.1667C28.9246 10.1667 30.4507 10.7989 31.5759 11.9241C32.7011 13.0493 33.3333 14.5754 33.3333 16.1667ZM12.3334 19.1667C11.1399 19.1667 9.99533 18.6926 9.15142 17.8487C8.30751 17.0048 7.83341 15.8602 7.83341 14.6667C7.83341 13.4733 8.30751 12.3287 9.15142 11.4848C9.99533 10.6409 11.1399 10.1667 12.3334 10.1667C13.5268 10.1667 14.6714 10.6409 15.5153 11.4848C16.3593 12.3287 16.8334 13.4733 16.8334 14.6667C16.8334 15.8602 16.3593 17.0048 15.5153 17.8487C14.6714 18.6926 13.5268 19.1667 12.3334 19.1667Z" fill="white"/>
</svg>
