<svg width="30" height="30" viewBox="0 0 30 30" fill="none" xmlns="http://www.w3.org/2000/svg">
<path d="M15.2439 15.2415C15.8827 14.6885 16.3951 14.0046 16.7463 13.2361C17.0975 12.4676 17.2792 11.6326 17.2792 10.7877C17.2792 9.2 16.6485 7.67736 15.5259 6.55471C14.4032 5.43206 12.8806 4.80136 11.2929 4.80136C9.70526 4.80136 8.18262 5.43206 7.05997 6.55471C5.93732 7.67736 5.30662 9.2 5.30662 10.7877C5.30662 11.6326 5.48837 12.4676 5.83956 13.2361C6.19074 14.0046 6.70314 14.6885 7.34197 15.2415C5.66597 16.0004 4.24401 17.226 3.24612 18.7716C2.24822 20.3173 1.71661 22.1177 1.71484 23.9575C1.71484 24.2751 1.84098 24.5796 2.06551 24.8041C2.29004 25.0286 2.59457 25.1548 2.9121 25.1548C3.22964 25.1548 3.53417 25.0286 3.75869 24.8041C3.98322 24.5796 4.10936 24.2751 4.10936 23.9575C4.10936 22.0523 4.8662 20.2252 6.21338 18.878C7.56056 17.5308 9.38773 16.774 11.2929 16.774C13.1981 16.774 15.0253 17.5308 16.3725 18.878C17.7197 20.2252 18.4765 22.0523 18.4765 23.9575C18.4765 24.2751 18.6026 24.5796 18.8272 24.8041C19.0517 25.0286 19.3562 25.1548 19.6737 25.1548C19.9913 25.1548 20.2958 25.0286 20.5203 24.8041C20.7449 24.5796 20.871 24.2751 20.871 23.9575C20.8692 22.1177 20.3376 20.3173 19.3397 18.7716C18.3418 17.226 16.9199 16.0004 15.2439 15.2415ZM11.2929 14.3794C10.5825 14.3794 9.8881 14.1688 9.29744 13.7741C8.70677 13.3794 8.24641 12.8185 7.97455 12.1622C7.7027 11.5059 7.63157 10.7837 7.77016 10.0869C7.90875 9.3902 8.25083 8.75021 8.75315 8.24789C9.25547 7.74557 9.89547 7.40349 10.5922 7.2649C11.2889 7.12631 12.0111 7.19744 12.6674 7.46929C13.3238 7.74114 13.8847 8.20151 14.2794 8.79218C14.6741 9.38284 14.8847 10.0773 14.8847 10.7877C14.8847 11.7403 14.5063 12.6538 13.8327 13.3274C13.1591 14.001 12.2455 14.3794 11.2929 14.3794ZM22.9542 14.7626C23.7204 13.8997 24.221 12.8338 24.3955 11.6932C24.5701 10.5525 24.4112 9.38576 23.9381 8.33328C23.465 7.2808 22.6978 6.38749 21.7288 5.76087C20.7598 5.13426 19.6304 4.80105 18.4765 4.80136C18.159 4.80136 17.8544 4.9275 17.6299 5.15203C17.4054 5.37656 17.2792 5.68109 17.2792 5.99862C17.2792 6.31615 17.4054 6.62068 17.6299 6.84521C17.8544 7.06974 18.159 7.19588 18.4765 7.19588C19.4291 7.19588 20.3427 7.5743 21.0163 8.24789C21.6898 8.92148 22.0683 9.83506 22.0683 10.7877C22.0666 11.4165 21.8998 12.0339 21.5846 12.5781C21.2695 13.1222 20.817 13.5741 20.2724 13.8886C20.0949 13.991 19.9466 14.1372 19.8418 14.3133C19.737 14.4894 19.6791 14.6894 19.6737 14.8943C19.6687 15.0975 19.7156 15.2987 19.8098 15.4788C19.9041 15.659 20.0427 15.8121 20.2125 15.9239L20.6794 16.2352L20.8351 16.319C22.2783 17.0035 23.4958 18.0862 24.3442 19.4394C25.1927 20.7927 25.6368 22.3603 25.6241 23.9575C25.6241 24.2751 25.7503 24.5796 25.9748 24.8041C26.1993 25.0286 26.5039 25.1548 26.8214 25.1548C27.1389 25.1548 27.4435 25.0286 27.668 24.8041C27.8925 24.5796 28.0187 24.2751 28.0187 23.9575C28.0284 22.1202 27.5683 20.311 26.6819 18.7016C25.7955 17.0923 24.5123 15.7363 22.9542 14.7626Z" fill="#4997D3"/>
</svg>
