<svg width="30" height="30" viewBox="0 0 30 30" fill="none" xmlns="http://www.w3.org/2000/svg">
<path d="M2.9549 20.2846V3.58606L1.82958 4.71138C1.66531 4.87003 1.4453 4.95782 1.21693 4.95584C0.988563 4.95386 0.770109 4.86226 0.608621 4.70077C0.447133 4.53928 0.355533 4.32083 0.353549 4.09246C0.351564 3.86409 0.439354 3.64407 0.598012 3.4798L3.21097 0.866847C3.29188 0.785735 3.38799 0.721382 3.49381 0.677473C3.59962 0.633564 3.71306 0.610962 3.82763 0.610962C3.94219 0.610962 4.05563 0.633564 4.16145 0.677473C4.26726 0.721382 4.36338 0.785735 4.44428 0.866847L7.05724 3.4798C7.2159 3.64407 7.30369 3.86409 7.3017 4.09246C7.29972 4.32083 7.20812 4.53928 7.04663 4.70077C6.88514 4.86226 6.66669 4.95386 6.43832 4.95584C6.20995 4.95782 5.98994 4.87003 5.82567 4.71138L4.69861 3.58606V20.2846L5.82567 19.1575C5.98994 18.9989 6.20995 18.9111 6.43832 18.9131C6.66669 18.9151 6.88514 19.0067 7.04663 19.1682C7.20812 19.3296 7.29972 19.5481 7.3017 19.7765C7.30369 20.0048 7.2159 20.2248 7.05724 20.3891L4.44428 23.0021C4.36338 23.0832 4.26726 23.1475 4.16145 23.1914C4.05563 23.2354 3.94219 23.258 3.82763 23.258C3.71306 23.258 3.59962 23.2354 3.49381 23.1914C3.38799 23.1475 3.29188 23.0832 3.21097 23.0021L0.598012 20.3891C0.439354 20.2248 0.351564 20.0048 0.353549 19.7765C0.355533 19.5481 0.447133 19.3296 0.608621 19.1682C0.770109 19.0067 0.988563 18.9151 1.21693 18.9131C1.4453 18.9111 1.66531 18.9989 1.82958 19.1575L2.9549 20.2846ZM28.8284 25.2544L26.2154 22.6415C26.0512 22.4828 25.8312 22.395 25.6028 22.397C25.3744 22.399 25.156 22.4906 24.9945 22.6521C24.833 22.8136 24.7414 23.032 24.7394 23.2604C24.7374 23.4888 24.8252 23.7088 24.9839 23.8731L26.1092 25.0001H9.41238L10.5394 23.8731C10.6981 23.7088 10.7859 23.4888 10.7839 23.2604C10.7819 23.032 10.6903 22.8136 10.5288 22.6521C10.3673 22.4906 10.1489 22.399 9.92052 22.397C9.69215 22.395 9.47214 22.4828 9.30787 22.6415L6.69491 25.2544C6.6138 25.3353 6.54944 25.4315 6.50554 25.5373C6.46163 25.6431 6.43902 25.7565 6.43902 25.8711C6.43902 25.9857 6.46163 26.0991 6.50554 26.2049C6.54944 26.3107 6.6138 26.4069 6.69491 26.4878L9.30787 29.1007C9.47214 29.2594 9.69215 29.3472 9.92052 29.3452C10.1489 29.3432 10.3673 29.2516 10.5288 29.0901C10.6903 28.9286 10.7819 28.7102 10.7839 28.4818C10.7859 28.2534 10.6981 28.0334 10.5394 27.8691L9.41238 26.7438H26.1109L24.9856 27.8691C24.8269 28.0334 24.7392 28.2534 24.7411 28.4818C24.7431 28.7102 24.8347 28.9286 24.9962 29.0901C25.1577 29.2516 25.3762 29.3432 25.6045 29.3452C25.8329 29.3472 26.0529 29.2594 26.2172 29.1007L28.8301 26.4878C28.9111 26.4067 28.9754 26.3105 29.0191 26.2047C29.0629 26.0988 29.0853 25.9853 29.0851 25.8707C29.085 25.7562 29.0622 25.6428 29.0182 25.537C28.9741 25.4313 28.9096 25.3352 28.8284 25.2544ZM28.2135 5.83843C27.9825 5.83843 27.7609 5.9302 27.5976 6.09354C27.4343 6.25688 27.3425 6.47842 27.3425 6.70942V8.45139C27.3425 8.68239 27.4343 8.90393 27.5976 9.06727C27.7609 9.23061 27.9825 9.32237 28.2135 9.32237C28.4445 9.32237 28.666 9.23061 28.8294 9.06727C28.9927 8.90393 29.0845 8.68239 29.0845 8.45139V6.70942C29.0845 6.47842 28.9927 6.25688 28.8294 6.09354C28.666 5.9302 28.4445 5.83843 28.2135 5.83843ZM28.2135 11.0643C27.9825 11.0643 27.7609 11.1561 27.5976 11.3195C27.4343 11.4828 27.3425 11.7043 27.3425 11.9353V13.6773C27.3425 13.9083 27.4343 14.1298 27.5976 14.2932C27.7609 14.4565 27.9825 14.5483 28.2135 14.5483C28.4445 14.5483 28.666 14.4565 28.8294 14.2932C28.9927 14.1298 29.0845 13.9083 29.0845 13.6773V11.9353C29.0845 11.7043 28.9927 11.4828 28.8294 11.3195C28.666 11.1561 28.4445 11.0643 28.2135 11.0643ZM10.7938 9.32237C11.0248 9.32237 11.2463 9.23061 11.4096 9.06727C11.573 8.90393 11.6648 8.68239 11.6648 8.45139V6.70942C11.6648 6.47842 11.573 6.25688 11.4096 6.09354C11.2463 5.9302 11.0248 5.83843 10.7938 5.83843C10.5628 5.83843 10.3412 5.9302 10.1779 6.09354C10.0145 6.25688 9.92278 6.47842 9.92278 6.70942V8.45139C9.92278 8.68239 10.0145 8.90393 10.1779 9.06727C10.3412 9.23061 10.5628 9.32237 10.7938 9.32237ZM10.7938 14.5483C11.0248 14.5483 11.2463 14.4565 11.4096 14.2932C11.573 14.1298 11.6648 13.9083 11.6648 13.6773V11.9353C11.6648 11.7043 11.573 11.4828 11.4096 11.3195C11.2463 11.1561 11.0248 11.0643 10.7938 11.0643C10.5628 11.0643 10.3412 11.1561 10.1779 11.3195C10.0145 11.4828 9.92278 11.7043 9.92278 11.9353V13.6773C9.92278 13.9083 10.0145 14.1298 10.1779 14.2932C10.3412 14.4565 10.5628 14.5483 10.7938 14.5483ZM21.2456 2.35449H22.9876C23.2186 2.35449 23.4401 2.26273 23.6034 2.09938C23.7668 1.93604 23.8586 1.7145 23.8586 1.4835C23.8586 1.2525 23.7668 1.03097 23.6034 0.867624C23.4401 0.704283 23.2186 0.612519 22.9876 0.612519H21.2456C21.0146 0.612519 20.7931 0.704283 20.6297 0.867624C20.4664 1.03097 20.3746 1.2525 20.3746 1.4835C20.3746 1.7145 20.4664 1.93604 20.6297 2.09938C20.7931 2.26273 21.0146 2.35449 21.2456 2.35449ZM16.0197 2.35449H17.7617C17.9927 2.35449 18.2142 2.26273 18.3775 2.09938C18.5409 1.93604 18.6326 1.7145 18.6326 1.4835C18.6326 1.2525 18.5409 1.03097 18.3775 0.867624C18.2142 0.704283 17.9927 0.612519 17.7617 0.612519H16.0197C15.7887 0.612519 15.5671 0.704283 15.4038 0.867624C15.2405 1.03097 15.1487 1.2525 15.1487 1.4835C15.1487 1.7145 15.2405 1.93604 15.4038 2.09938C15.5671 2.26273 15.7887 2.35449 16.0197 2.35449ZM21.2456 19.7742H22.9876C23.2186 19.7742 23.4401 19.6824 23.6034 19.5191C23.7668 19.3558 23.8586 19.1342 23.8586 18.9032C23.8586 18.6722 23.7668 18.4507 23.6034 18.2873C23.4401 18.124 23.2186 18.0322 22.9876 18.0322H21.2456C21.0146 18.0322 20.7931 18.124 20.6297 18.2873C20.4664 18.4507 20.3746 18.6722 20.3746 18.9032C20.3746 19.1342 20.4664 19.3558 20.6297 19.5191C20.7931 19.6824 21.0146 19.7742 21.2456 19.7742ZM16.0197 19.7742H17.7617C17.9927 19.7742 18.2142 19.6824 18.3775 19.5191C18.5409 19.3558 18.6326 19.1342 18.6326 18.9032C18.6326 18.6722 18.5409 18.4507 18.3775 18.2873C18.2142 18.124 17.9927 18.0322 17.7617 18.0322H16.0197C15.7887 18.0322 15.5671 18.124 15.4038 18.2873C15.2405 18.4507 15.1487 18.6722 15.1487 18.9032C15.1487 19.1342 15.2405 19.3558 15.4038 19.5191C15.5671 19.6824 15.7887 19.7742 16.0197 19.7742ZM26.4715 0.612519C26.2405 0.612519 26.019 0.704283 25.8556 0.867624C25.6923 1.03097 25.6005 1.2525 25.6005 1.4835C25.6005 1.7145 25.6923 1.93604 25.8556 2.09938C26.019 2.26273 26.2405 2.35449 26.4715 2.35449C26.7025 2.35449 26.924 2.44625 27.0874 2.6096C27.2507 2.77294 27.3425 2.99448 27.3425 3.22548C27.3425 3.45648 27.4343 3.67801 27.5976 3.84136C27.7609 4.0047 27.9825 4.09646 28.2135 4.09646C28.4445 4.09646 28.666 4.0047 28.8294 3.84136C28.9927 3.67801 29.0845 3.45648 29.0845 3.22548C29.0845 2.53248 28.8092 1.86786 28.3191 1.37784C27.8291 0.887812 27.1645 0.612519 26.4715 0.612519ZM12.5357 19.7742C12.7667 19.7742 12.9883 19.6824 13.1516 19.5191C13.315 19.3558 13.4067 19.1342 13.4067 18.9032C13.4067 18.6722 13.315 18.4507 13.1516 18.2873C12.9883 18.124 12.7667 18.0322 12.5357 18.0322C12.3047 18.0322 12.0832 17.9405 11.9199 17.7771C11.7565 17.6138 11.6648 17.3922 11.6648 17.1612C11.6648 16.9302 11.573 16.7087 11.4096 16.5454C11.2463 16.382 11.0248 16.2903 10.7938 16.2903C10.5628 16.2903 10.3412 16.382 10.1779 16.5454C10.0145 16.7087 9.92278 16.9302 9.92278 17.1612C9.92278 17.8542 10.1981 18.5189 10.6881 19.0089C11.1781 19.4989 11.8427 19.7742 12.5357 19.7742ZM28.2135 16.2903C27.9825 16.2903 27.7609 16.382 27.5976 16.5454C27.4343 16.7087 27.3425 16.9302 27.3425 17.1612C27.3425 17.3922 27.2507 17.6138 27.0874 17.7771C26.924 17.9405 26.7025 18.0322 26.4715 18.0322C26.2405 18.0322 26.019 18.124 25.8556 18.2873C25.6923 18.4507 25.6005 18.6722 25.6005 18.9032C25.6005 19.1342 25.6923 19.3558 25.8556 19.5191C26.019 19.6824 26.2405 19.7742 26.4715 19.7742C27.1645 19.7742 27.8291 19.4989 28.3191 19.0089C28.8092 18.5189 29.0845 17.8542 29.0845 17.1612C29.0845 16.9302 28.9927 16.7087 28.8294 16.5454C28.666 16.382 28.4445 16.2903 28.2135 16.2903ZM10.7938 4.09646C11.0248 4.09646 11.2463 4.0047 11.4096 3.84136C11.573 3.67801 11.6648 3.45648 11.6648 3.22548C11.6648 2.99448 11.7565 2.77294 11.9199 2.6096C12.0832 2.44625 12.3047 2.35449 12.5357 2.35449C12.7667 2.35449 12.9883 2.26273 13.1516 2.09938C13.315 1.93604 13.4067 1.7145 13.4067 1.4835C13.4067 1.2525 13.315 1.03097 13.1516 0.867624C12.9883 0.704283 12.7667 0.612519 12.5357 0.612519C11.8427 0.612519 11.1781 0.887812 10.6881 1.37784C10.1981 1.86786 9.92278 2.53248 9.92278 3.22548C9.92278 3.45648 10.0145 3.67801 10.1779 3.84136C10.3412 4.0047 10.5628 4.09646 10.7938 4.09646Z" fill="#4997D3"/>
</svg>
